<?xml version="1.0" encoding="UTF-8"?>
<svg xmlns="http://www.w3.org/2000/svg" xmlns:xlink="http://www.w3.org/1999/xlink" width="200pt" height="200pt" viewBox="0 0 200 200" version="1.1">
<g id="surface8173">
<path style="fill:none;stroke-width:1;stroke-linecap:butt;stroke-linejoin:miter;stroke:rgb(0%,100%,0%);stroke-opacity:1;stroke-miterlimit:10;" d="M 0 0 L 40 0 Z M 0 0 " transform="matrix(1,0,0,1,100,100)"/>
<path style="fill:none;stroke-width:1;stroke-linecap:butt;stroke-linejoin:miter;stroke:rgb(0%,100%,0%);stroke-opacity:1;stroke-miterlimit:10;" d="M 0 0 L 9.999915 -0.0000488939 Z M 0 0 " transform="matrix(0.5,0.866025,-0.866025,0.5,140,100)"/>
<path style="fill:none;stroke-width:1;stroke-linecap:butt;stroke-linejoin:miter;stroke:rgb(0%,100%,0%);stroke-opacity:1;stroke-miterlimit:10;" d="M -0.0000846868 0.0000488939 L 9.999831 0.0000977878 Z M -0.0000846868 0.0000488939 " transform="matrix(-0.5,0.866025,-0.866025,-0.5,145,108.660254)"/>
<path style="fill:none;stroke-width:1;stroke-linecap:butt;stroke-linejoin:miter;stroke:rgb(0%,100%,0%);stroke-opacity:1;stroke-miterlimit:10;" d="M 0.000000000000028422 0.000195576 L 10 0.000195576 Z M 0.000000000000028422 0.000195576 " transform="matrix(-1,0.000000000000000389,-0.000000000000000389,-1,140,117.320508)"/>
<path style="fill:none;stroke-width:1;stroke-linecap:butt;stroke-linejoin:miter;stroke:rgb(0%,100%,0%);stroke-opacity:1;stroke-miterlimit:10;" d="M 0.000169374 0.0000977878 L 10.000085 0.0000488939 Z M 0.000169374 0.0000977878 " transform="matrix(-0.5,-0.866025,0.866025,-0.5,130,117.320508)"/>
<path style="fill:none;stroke-width:1;stroke-linecap:butt;stroke-linejoin:miter;stroke:rgb(0%,100%,0%);stroke-opacity:1;stroke-miterlimit:10;" d="M 0.0000846868 -0.0000488939 L 10 -0.000000000000028422 Z M 0.0000846868 -0.0000488939 " transform="matrix(0.5,-0.866025,0.866025,0.5,125,108.660254)"/>
<path style="fill:none;stroke-width:1;stroke-linecap:butt;stroke-linejoin:miter;stroke:rgb(0%,100%,0%);stroke-opacity:1;stroke-miterlimit:10;" d="M -0.000000000000028422 0.000000000000014211 L 10 0.000000000000028422 Z M -0.000000000000028422 0.000000000000014211 " transform="matrix(1,-0.000000000000000888,0.000000000000000888,1,130,100)"/>
<path style="fill:none;stroke-width:1;stroke-linecap:butt;stroke-linejoin:miter;stroke:rgb(0%,100%,0%);stroke-opacity:1;stroke-miterlimit:10;" d="M 0.000000000000028422 0.000000000000028422 L 39.999661 -0.000195576 Z M 0.000000000000028422 0.000000000000028422 " transform="matrix(0.5,0.866025,-0.866025,0.5,140,100)"/>
<path style="fill:none;stroke-width:1;stroke-linecap:butt;stroke-linejoin:miter;stroke:rgb(0%,100%,0%);stroke-opacity:1;stroke-miterlimit:10;" d="M -0.000338747 0.000195576 L 9.999577 0.00024447 Z M -0.000338747 0.000195576 " transform="matrix(-0.5,0.866025,-0.866025,-0.5,160,134.641016)"/>
<path style="fill:none;stroke-width:1;stroke-linecap:butt;stroke-linejoin:miter;stroke:rgb(0%,100%,0%);stroke-opacity:1;stroke-miterlimit:10;" d="M 0.000000000000085265 0.000488939 L 10 0.000488939 Z M 0.000000000000085265 0.000488939 " transform="matrix(-1,0.000000000000001277,-0.000000000000001277,-1,155,143.30127)"/>
<path style="fill:none;stroke-width:1;stroke-linecap:butt;stroke-linejoin:miter;stroke:rgb(0%,100%,0%);stroke-opacity:1;stroke-miterlimit:10;" d="M 0.000423434 0.00024447 L 10.000339 0.000195576 Z M 0.000423434 0.00024447 " transform="matrix(-0.5,-0.866025,0.866025,-0.5,145,143.30127)"/>
<path style="fill:none;stroke-width:1;stroke-linecap:butt;stroke-linejoin:miter;stroke:rgb(0%,100%,0%);stroke-opacity:1;stroke-miterlimit:10;" d="M 0.000338747 -0.000195576 L 10.000254 -0.000146682 Z M 0.000338747 -0.000195576 " transform="matrix(0.5,-0.866025,0.866025,0.5,140,134.641016)"/>
<path style="fill:none;stroke-width:1;stroke-linecap:butt;stroke-linejoin:miter;stroke:rgb(0%,100%,0%);stroke-opacity:1;stroke-miterlimit:10;" d="M -0.000000000000085265 -0.000293364 L 10 -0.000293364 Z M -0.000000000000085265 -0.000293364 " transform="matrix(1,-0.000000000000001721,0.000000000000001721,1,145,125.980762)"/>
<path style="fill:none;stroke-width:1;stroke-linecap:butt;stroke-linejoin:miter;stroke:rgb(0%,100%,0%);stroke-opacity:1;stroke-miterlimit:10;" d="M -0.00025406 -0.000146682 L 9.999661 -0.000195576 Z M -0.00025406 -0.000146682 " transform="matrix(0.5,0.866025,-0.866025,0.5,155,125.980762)"/>
<path style="fill:none;stroke-width:1;stroke-linecap:butt;stroke-linejoin:miter;stroke:rgb(0%,100%,0%);stroke-opacity:1;stroke-miterlimit:10;" d="M -0.000338747 0.000195576 L 39.999323 0.000391151 Z M -0.000338747 0.000195576 " transform="matrix(-0.5,0.866025,-0.866025,-0.5,160,134.641016)"/>
<path style="fill:none;stroke-width:1;stroke-linecap:butt;stroke-linejoin:miter;stroke:rgb(0%,100%,0%);stroke-opacity:1;stroke-miterlimit:10;" d="M 0.000000000000198952 0.000782303 L 10 0.000782303 Z M 0.000000000000198952 0.000782303 " transform="matrix(-1,0.000000000000002109,-0.000000000000002109,-1,140,169.282032)"/>
<path style="fill:none;stroke-width:1;stroke-linecap:butt;stroke-linejoin:miter;stroke:rgb(0%,100%,0%);stroke-opacity:1;stroke-miterlimit:10;" d="M 0.000677494 0.000391151 L 10.000593 0.000342257 Z M 0.000677494 0.000391151 " transform="matrix(-0.5,-0.866025,0.866025,-0.5,130,169.282032)"/>
<path style="fill:none;stroke-width:1;stroke-linecap:butt;stroke-linejoin:miter;stroke:rgb(0%,100%,0%);stroke-opacity:1;stroke-miterlimit:10;" d="M 0.000592807 -0.000342257 L 10.000508 -0.000293364 Z M 0.000592807 -0.000342257 " transform="matrix(0.5,-0.866025,0.866025,0.5,125,160.621778)"/>
<path style="fill:none;stroke-width:1;stroke-linecap:butt;stroke-linejoin:miter;stroke:rgb(0%,100%,0%);stroke-opacity:1;stroke-miterlimit:10;" d="M -0.000000000000142109 -0.000586727 L 10 -0.000586727 Z M -0.000000000000142109 -0.000586727 " transform="matrix(1,-0.000000000000002387,0.000000000000002387,1,130,151.961524)"/>
<path style="fill:none;stroke-width:1;stroke-linecap:butt;stroke-linejoin:miter;stroke:rgb(0%,100%,0%);stroke-opacity:1;stroke-miterlimit:10;" d="M -0.000508121 -0.000293364 L 9.999407 -0.000342257 Z M -0.000508121 -0.000293364 " transform="matrix(0.5,0.866025,-0.866025,0.5,140,151.961524)"/>
<path style="fill:none;stroke-width:1;stroke-linecap:butt;stroke-linejoin:miter;stroke:rgb(0%,100%,0%);stroke-opacity:1;stroke-miterlimit:10;" d="M -0.000592807 0.000342257 L 9.999323 0.000391151 Z M -0.000592807 0.000342257 " transform="matrix(-0.5,0.866025,-0.866025,-0.5,145,160.621778)"/>
<path style="fill:none;stroke-width:1;stroke-linecap:butt;stroke-linejoin:miter;stroke:rgb(0%,100%,0%);stroke-opacity:1;stroke-miterlimit:10;" d="M 0.000000000000198952 0.000782303 L 40 0.000782303 Z M 0.000000000000198952 0.000782303 " transform="matrix(-1,0.000000000000002831,-0.000000000000002831,-1,140,169.282032)"/>
<path style="fill:none;stroke-width:1;stroke-linecap:butt;stroke-linejoin:miter;stroke:rgb(0%,100%,0%);stroke-opacity:1;stroke-miterlimit:10;" d="M 0.000677494 0.000391151 L 10.000593 0.000342257 Z M 0.000677494 0.000391151 " transform="matrix(-0.5,-0.866025,0.866025,-0.5,100,169.282032)"/>
<path style="fill:none;stroke-width:1;stroke-linecap:butt;stroke-linejoin:miter;stroke:rgb(0%,100%,0%);stroke-opacity:1;stroke-miterlimit:10;" d="M 0.000592807 -0.000342257 L 10.000508 -0.000293364 Z M 0.000592807 -0.000342257 " transform="matrix(0.5,-0.866025,0.866025,0.5,95,160.621778)"/>
<path style="fill:none;stroke-width:1;stroke-linecap:butt;stroke-linejoin:miter;stroke:rgb(0%,100%,0%);stroke-opacity:1;stroke-miterlimit:10;" d="M -0.000000000000142109 -0.000586727 L 10 -0.000586727 Z M -0.000000000000142109 -0.000586727 " transform="matrix(1,-0.00000000000000322,0.00000000000000322,1,100,151.961524)"/>
<path style="fill:none;stroke-width:1;stroke-linecap:butt;stroke-linejoin:miter;stroke:rgb(0%,100%,0%);stroke-opacity:1;stroke-miterlimit:10;" d="M -0.000508121 -0.000293364 L 9.999407 -0.000342257 Z M -0.000508121 -0.000293364 " transform="matrix(0.5,0.866025,-0.866025,0.5,110,151.961524)"/>
<path style="fill:none;stroke-width:1;stroke-linecap:butt;stroke-linejoin:miter;stroke:rgb(0%,100%,0%);stroke-opacity:1;stroke-miterlimit:10;" d="M -0.000592807 0.000342257 L 9.999323 0.000391151 Z M -0.000592807 0.000342257 " transform="matrix(-0.5,0.866025,-0.866025,-0.5,115,160.621778)"/>
<path style="fill:none;stroke-width:1;stroke-linecap:butt;stroke-linejoin:miter;stroke:rgb(0%,100%,0%);stroke-opacity:1;stroke-miterlimit:10;" d="M 0.000000000000227374 0.000782303 L 10 0.000782303 Z M 0.000000000000227374 0.000782303 " transform="matrix(-1,0.000000000000003664,-0.000000000000003664,-1,110,169.282032)"/>
<path style="fill:none;stroke-width:1;stroke-linecap:butt;stroke-linejoin:miter;stroke:rgb(0%,100%,0%);stroke-opacity:1;stroke-miterlimit:10;" d="M 0.000677494 0.000391151 L 40.000339 0.000195576 Z M 0.000677494 0.000391151 " transform="matrix(-0.5,-0.866025,0.866025,-0.5,100,169.282032)"/>
<path style="fill:none;stroke-width:1;stroke-linecap:butt;stroke-linejoin:miter;stroke:rgb(0%,100%,0%);stroke-opacity:1;stroke-miterlimit:10;" d="M 0.000338747 -0.000195576 L 10.000254 -0.000146682 Z M 0.000338747 -0.000195576 " transform="matrix(0.5,-0.866025,0.866025,0.5,80,134.641016)"/>
<path style="fill:none;stroke-width:1;stroke-linecap:butt;stroke-linejoin:miter;stroke:rgb(0%,100%,0%);stroke-opacity:1;stroke-miterlimit:10;" d="M -0.000000000000071054 -0.000293364 L 10 -0.000293364 Z M -0.000000000000071054 -0.000293364 " transform="matrix(1,-0.000000000000004163,0.000000000000004163,1,85,125.980762)"/>
<path style="fill:none;stroke-width:1;stroke-linecap:butt;stroke-linejoin:miter;stroke:rgb(0%,100%,0%);stroke-opacity:1;stroke-miterlimit:10;" d="M -0.00025406 -0.000146682 L 9.999661 -0.000195576 Z M -0.00025406 -0.000146682 " transform="matrix(0.5,0.866025,-0.866025,0.5,95,125.980762)"/>
<path style="fill:none;stroke-width:1;stroke-linecap:butt;stroke-linejoin:miter;stroke:rgb(0%,100%,0%);stroke-opacity:1;stroke-miterlimit:10;" d="M -0.000338747 0.000195576 L 9.999577 0.00024447 Z M -0.000338747 0.000195576 " transform="matrix(-0.5,0.866025,-0.866025,-0.5,100,134.641016)"/>
<path style="fill:none;stroke-width:1;stroke-linecap:butt;stroke-linejoin:miter;stroke:rgb(0%,100%,0%);stroke-opacity:1;stroke-miterlimit:10;" d="M 0.000000000000127898 0.000488939 L 10 0.000488939 Z M 0.000000000000127898 0.000488939 " transform="matrix(-1,0.000000000000004496,-0.000000000000004496,-1,95,143.30127)"/>
<path style="fill:none;stroke-width:1;stroke-linecap:butt;stroke-linejoin:miter;stroke:rgb(0%,100%,0%);stroke-opacity:1;stroke-miterlimit:10;" d="M 0.000423434 0.00024447 L 10.000339 0.000195576 Z M 0.000423434 0.00024447 " transform="matrix(-0.5,-0.866025,0.866025,-0.5,85,143.30127)"/>
<path style="fill:none;stroke-width:1;stroke-linecap:butt;stroke-linejoin:miter;stroke:rgb(0%,100%,0%);stroke-opacity:1;stroke-miterlimit:10;" d="M 0.000338747 -0.000195576 L 40 0 Z M 0.000338747 -0.000195576 " transform="matrix(0.5,-0.866025,0.866025,0.5,80,134.641016)"/>
<path style="fill:none;stroke-width:1;stroke-linecap:butt;stroke-linejoin:miter;stroke:rgb(0%,100%,0%);stroke-opacity:1;stroke-miterlimit:10;" d="M 0.000000000000071054 -0.000000000000142109 L 10 -0.000000000000099476 Z M 0.000000000000071054 -0.000000000000142109 " transform="matrix(1,-0.000000000000004829,0.000000000000004829,1,100,100)"/>
<path style="fill:none;stroke-width:1;stroke-linecap:butt;stroke-linejoin:miter;stroke:rgb(0%,100%,0%);stroke-opacity:1;stroke-miterlimit:10;" d="M -0.000000000000028422 -0.000000000000106581 L 9.999915 -0.0000488939 Z M -0.000000000000028422 -0.000000000000106581 " transform="matrix(0.5,0.866025,-0.866025,0.5,110,100)"/>
<path style="fill:none;stroke-width:1;stroke-linecap:butt;stroke-linejoin:miter;stroke:rgb(0%,100%,0%);stroke-opacity:1;stroke-miterlimit:10;" d="M -0.0000846868 0.0000488939 L 9.999831 0.0000977878 Z M -0.0000846868 0.0000488939 " transform="matrix(-0.5,0.866025,-0.866025,-0.5,115,108.660254)"/>
<path style="fill:none;stroke-width:1;stroke-linecap:butt;stroke-linejoin:miter;stroke:rgb(0%,100%,0%);stroke-opacity:1;stroke-miterlimit:10;" d="M 0.000000000000014211 0.000195576 L 10 0.000195576 Z M 0.000000000000014211 0.000195576 " transform="matrix(-1,0.000000000000005274,-0.000000000000005274,-1,110,117.320508)"/>
<path style="fill:none;stroke-width:1;stroke-linecap:butt;stroke-linejoin:miter;stroke:rgb(0%,100%,0%);stroke-opacity:1;stroke-miterlimit:10;" d="M 0.000169374 0.0000977878 L 10.000085 0.0000488939 Z M 0.000169374 0.0000977878 " transform="matrix(-0.5,-0.866025,0.866025,-0.5,100,117.320508)"/>
<path style="fill:none;stroke-width:1;stroke-linecap:butt;stroke-linejoin:miter;stroke:rgb(0%,100%,0%);stroke-opacity:1;stroke-miterlimit:10;" d="M 0.0000846868 -0.0000488939 L 10 0.000000000000028422 Z M 0.0000846868 -0.0000488939 " transform="matrix(0.5,-0.866025,0.866025,0.5,95,108.660254)"/>
<path style="fill:none;stroke-width:1;stroke-linecap:butt;stroke-linejoin:miter;stroke:rgb(0%,100%,0%);stroke-opacity:1;stroke-miterlimit:10;" d="M -0.000000000000127898 -0.000000000000028422 L 39.999661 0.000195576 Z M -0.000000000000127898 -0.000000000000028422 " transform="matrix(-0.5,0.866025,-0.866025,-0.5,100,100)"/>
<path style="fill:none;stroke-width:1;stroke-linecap:butt;stroke-linejoin:miter;stroke:rgb(0%,100%,0%);stroke-opacity:1;stroke-miterlimit:10;" d="M 0.000000000000113687 0.000391151 L 10 0.000391151 Z M 0.000000000000113687 0.000391151 " transform="matrix(-1,0.000000000000006106,-0.000000000000006106,-1,80,134.641016)"/>
<path style="fill:none;stroke-width:1;stroke-linecap:butt;stroke-linejoin:miter;stroke:rgb(0%,100%,0%);stroke-opacity:1;stroke-miterlimit:10;" d="M 0.000338747 0.000195576 L 10.000254 0.000146682 Z M 0.000338747 0.000195576 " transform="matrix(-0.5,-0.866025,0.866025,-0.5,70,134.641016)"/>
<path style="fill:none;stroke-width:1;stroke-linecap:butt;stroke-linejoin:miter;stroke:rgb(0%,100%,0%);stroke-opacity:1;stroke-miterlimit:10;" d="M 0.00025406 -0.000146682 L 10.000169 -0.0000977878 Z M 0.00025406 -0.000146682 " transform="matrix(0.5,-0.866025,0.866025,0.5,65,125.980762)"/>
<path style="fill:none;stroke-width:1;stroke-linecap:butt;stroke-linejoin:miter;stroke:rgb(0%,100%,0%);stroke-opacity:1;stroke-miterlimit:10;" d="M -0.000000000000014211 -0.000195576 L 10 -0.000195576 Z M -0.000000000000014211 -0.000195576 " transform="matrix(1,-0.000000000000006606,0.000000000000006606,1,70,117.320508)"/>
<path style="fill:none;stroke-width:1;stroke-linecap:butt;stroke-linejoin:miter;stroke:rgb(0%,100%,0%);stroke-opacity:1;stroke-miterlimit:10;" d="M -0.000169374 -0.0000977878 L 9.999746 -0.000146682 Z M -0.000169374 -0.0000977878 " transform="matrix(0.5,0.866025,-0.866025,0.5,80,117.320508)"/>
<path style="fill:none;stroke-width:1;stroke-linecap:butt;stroke-linejoin:miter;stroke:rgb(0%,100%,0%);stroke-opacity:1;stroke-miterlimit:10;" d="M -0.00025406 0.000146682 L 9.999661 0.000195576 Z M -0.00025406 0.000146682 " transform="matrix(-0.5,0.866025,-0.866025,-0.5,85,125.980762)"/>
<path style="fill:none;stroke-width:1;stroke-linecap:butt;stroke-linejoin:miter;stroke:rgb(0%,100%,0%);stroke-opacity:1;stroke-miterlimit:10;" d="M 0.000000000000156319 0.000391151 L 40 0.000391151 Z M 0.000000000000156319 0.000391151 " transform="matrix(-1,0.000000000000007105,-0.000000000000007105,-1,80,134.641016)"/>
<path style="fill:none;stroke-width:1;stroke-linecap:butt;stroke-linejoin:miter;stroke:rgb(0%,100%,0%);stroke-opacity:1;stroke-miterlimit:10;" d="M 0.000338747 0.000195576 L 10.000254 0.000146682 Z M 0.000338747 0.000195576 " transform="matrix(-0.5,-0.866025,0.866025,-0.5,40,134.641016)"/>
<path style="fill:none;stroke-width:1;stroke-linecap:butt;stroke-linejoin:miter;stroke:rgb(0%,100%,0%);stroke-opacity:1;stroke-miterlimit:10;" d="M 0.00025406 -0.000146682 L 10.000169 -0.0000977878 Z M 0.00025406 -0.000146682 " transform="matrix(0.5,-0.866025,0.866025,0.5,35,125.980762)"/>
<path style="fill:none;stroke-width:1;stroke-linecap:butt;stroke-linejoin:miter;stroke:rgb(0%,100%,0%);stroke-opacity:1;stroke-miterlimit:10;" d="M -0.000000000000035527 -0.000195576 L 10 -0.000195576 Z M -0.000000000000035527 -0.000195576 " transform="matrix(1,-0.000000000000007438,0.000000000000007438,1,40,117.320508)"/>
<path style="fill:none;stroke-width:1;stroke-linecap:butt;stroke-linejoin:miter;stroke:rgb(0%,100%,0%);stroke-opacity:1;stroke-miterlimit:10;" d="M -0.000169374 -0.0000977878 L 9.999746 -0.000146682 Z M -0.000169374 -0.0000977878 " transform="matrix(0.5,0.866025,-0.866025,0.5,50,117.320508)"/>
<path style="fill:none;stroke-width:1;stroke-linecap:butt;stroke-linejoin:miter;stroke:rgb(0%,100%,0%);stroke-opacity:1;stroke-miterlimit:10;" d="M -0.00025406 0.000146682 L 9.999661 0.000195576 Z M -0.00025406 0.000146682 " transform="matrix(-0.5,0.866025,-0.866025,-0.5,55,125.980762)"/>
<path style="fill:none;stroke-width:1;stroke-linecap:butt;stroke-linejoin:miter;stroke:rgb(0%,100%,0%);stroke-opacity:1;stroke-miterlimit:10;" d="M 0.000000000000149214 0.000391151 L 10 0.000391151 Z M 0.000000000000149214 0.000391151 " transform="matrix(-1,0.000000000000007772,-0.000000000000007772,-1,50,134.641016)"/>
<path style="fill:none;stroke-width:1;stroke-linecap:butt;stroke-linejoin:miter;stroke:rgb(0%,100%,0%);stroke-opacity:1;stroke-miterlimit:10;" d="M 0.000338747 0.000195576 L 40 0.000000000000412115 Z M 0.000338747 0.000195576 " transform="matrix(-0.5,-0.866025,0.866025,-0.5,40,134.641016)"/>
<path style="fill:none;stroke-width:1;stroke-linecap:butt;stroke-linejoin:miter;stroke:rgb(0%,100%,0%);stroke-opacity:1;stroke-miterlimit:10;" d="M 0.000000000000625278 -0.000000000000213163 L 9.999915 0.0000488939 Z M 0.000000000000625278 -0.000000000000213163 " transform="matrix(0.5,-0.866025,0.866025,0.5,20,100)"/>
<path style="fill:none;stroke-width:1;stroke-linecap:butt;stroke-linejoin:miter;stroke:rgb(0%,100%,0%);stroke-opacity:1;stroke-miterlimit:10;" d="M 0.000000000000188294 0.0000977878 L 10 0.0000977878 Z M 0.000000000000188294 0.0000977878 " transform="matrix(1,-0.00000000000000816,0.00000000000000816,1,25,91.339746)"/>
<path style="fill:none;stroke-width:1;stroke-linecap:butt;stroke-linejoin:miter;stroke:rgb(0%,100%,0%);stroke-opacity:1;stroke-miterlimit:10;" d="M 0.0000846868 0.0000488939 L 10 -0.000000000000330402 Z M 0.0000846868 0.0000488939 " transform="matrix(0.5,0.866025,-0.866025,0.5,35,91.339746)"/>
<path style="fill:none;stroke-width:1;stroke-linecap:butt;stroke-linejoin:miter;stroke:rgb(0%,100%,0%);stroke-opacity:1;stroke-miterlimit:10;" d="M -0.000000000000454747 0.000000000000142109 L 9.999915 0.0000488939 Z M -0.000000000000454747 0.000000000000142109 " transform="matrix(-0.5,0.866025,-0.866025,-0.5,40,100)"/>
<path style="fill:none;stroke-width:1;stroke-linecap:butt;stroke-linejoin:miter;stroke:rgb(0%,100%,0%);stroke-opacity:1;stroke-miterlimit:10;" d="M -0.000000000000021316 0.0000977878 L 10 0.0000977878 Z M -0.000000000000021316 0.0000977878 " transform="matrix(-1,0.000000000000008604,-0.000000000000008604,-1,35,108.660254)"/>
<path style="fill:none;stroke-width:1;stroke-linecap:butt;stroke-linejoin:miter;stroke:rgb(0%,100%,0%);stroke-opacity:1;stroke-miterlimit:10;" d="M 0.0000846868 0.0000488939 L 10 0.000000000000412115 Z M 0.0000846868 0.0000488939 " transform="matrix(-0.5,-0.866025,0.866025,-0.5,25,108.660254)"/>
<path style="fill:none;stroke-width:1;stroke-linecap:butt;stroke-linejoin:miter;stroke:rgb(0%,100%,0%);stroke-opacity:1;stroke-miterlimit:10;" d="M 0.000000000000611067 -0.000000000000241585 L 39.999661 0.000195576 Z M 0.000000000000611067 -0.000000000000241585 " transform="matrix(0.5,-0.866025,0.866025,0.5,20,100)"/>
<path style="fill:none;stroke-width:1;stroke-linecap:butt;stroke-linejoin:miter;stroke:rgb(0%,100%,0%);stroke-opacity:1;stroke-miterlimit:10;" d="M 0.000000000000405009 0.000391151 L 10 0.000391151 Z M 0.000000000000405009 0.000391151 " transform="matrix(1,-0.000000000000009048,0.000000000000009048,1,40,65.358984)"/>
<path style="fill:none;stroke-width:1;stroke-linecap:butt;stroke-linejoin:miter;stroke:rgb(0%,100%,0%);stroke-opacity:1;stroke-miterlimit:10;" d="M 0.000338747 0.000195576 L 10.000254 0.000146682 Z M 0.000338747 0.000195576 " transform="matrix(0.5,0.866025,-0.866025,0.5,50,65.358984)"/>
<path style="fill:none;stroke-width:1;stroke-linecap:butt;stroke-linejoin:miter;stroke:rgb(0%,100%,0%);stroke-opacity:1;stroke-miterlimit:10;" d="M 0.00025406 -0.000146682 L 10.000169 -0.0000977878 Z M 0.00025406 -0.000146682 " transform="matrix(-0.5,0.866025,-0.866025,-0.5,55,74.019238)"/>
<path style="fill:none;stroke-width:1;stroke-linecap:butt;stroke-linejoin:miter;stroke:rgb(0%,100%,0%);stroke-opacity:1;stroke-miterlimit:10;" d="M -0.000000000000227374 -0.000195576 L 10 -0.000195576 Z M -0.000000000000227374 -0.000195576 " transform="matrix(-1,0.000000000000009548,-0.000000000000009548,-1,50,82.679492)"/>
<path style="fill:none;stroke-width:1;stroke-linecap:butt;stroke-linejoin:miter;stroke:rgb(0%,100%,0%);stroke-opacity:1;stroke-miterlimit:10;" d="M -0.000169374 -0.0000977878 L 9.999746 -0.000146682 Z M -0.000169374 -0.0000977878 " transform="matrix(-0.5,-0.866025,0.866025,-0.5,40,82.679492)"/>
<path style="fill:none;stroke-width:1;stroke-linecap:butt;stroke-linejoin:miter;stroke:rgb(0%,100%,0%);stroke-opacity:1;stroke-miterlimit:10;" d="M -0.00025406 0.000146682 L 9.999661 0.000195576 Z M -0.00025406 0.000146682 " transform="matrix(0.5,-0.866025,0.866025,0.5,35,74.019238)"/>
<path style="fill:none;stroke-width:1;stroke-linecap:butt;stroke-linejoin:miter;stroke:rgb(0%,100%,0%);stroke-opacity:1;stroke-miterlimit:10;" d="M 0.000000000000390799 0.000391151 L 40 0.000391151 Z M 0.000000000000390799 0.000391151 " transform="matrix(1,-0.000000000000009881,0.000000000000009881,1,40,65.358984)"/>
<path style="fill:none;stroke-width:1;stroke-linecap:butt;stroke-linejoin:miter;stroke:rgb(0%,100%,0%);stroke-opacity:1;stroke-miterlimit:10;" d="M 0.000338747 0.000195576 L 10.000254 0.000146682 Z M 0.000338747 0.000195576 " transform="matrix(0.5,0.866025,-0.866025,0.5,80,65.358984)"/>
<path style="fill:none;stroke-width:1;stroke-linecap:butt;stroke-linejoin:miter;stroke:rgb(0%,100%,0%);stroke-opacity:1;stroke-miterlimit:10;" d="M 0.00025406 -0.000146682 L 10.000169 -0.0000977878 Z M 0.00025406 -0.000146682 " transform="matrix(-0.5,0.866025,-0.866025,-0.5,85,74.019238)"/>
<path style="fill:none;stroke-width:1;stroke-linecap:butt;stroke-linejoin:miter;stroke:rgb(0%,100%,0%);stroke-opacity:1;stroke-miterlimit:10;" d="M -0.000000000000227374 -0.000195576 L 10 -0.000195576 Z M -0.000000000000227374 -0.000195576 " transform="matrix(-1,0.000000000000010325,-0.000000000000010325,-1,80,82.679492)"/>
<path style="fill:none;stroke-width:1;stroke-linecap:butt;stroke-linejoin:miter;stroke:rgb(0%,100%,0%);stroke-opacity:1;stroke-miterlimit:10;" d="M -0.000169374 -0.0000977878 L 9.999746 -0.000146682 Z M -0.000169374 -0.0000977878 " transform="matrix(-0.5,-0.866025,0.866025,-0.5,70,82.679492)"/>
<path style="fill:none;stroke-width:1;stroke-linecap:butt;stroke-linejoin:miter;stroke:rgb(0%,100%,0%);stroke-opacity:1;stroke-miterlimit:10;" d="M -0.00025406 0.000146682 L 9.999661 0.000195576 Z M -0.00025406 0.000146682 " transform="matrix(0.5,-0.866025,0.866025,0.5,65,74.019238)"/>
<path style="fill:none;stroke-width:1;stroke-linecap:butt;stroke-linejoin:miter;stroke:rgb(0%,100%,0%);stroke-opacity:1;stroke-miterlimit:10;" d="M 0.000000000000397904 0.000391151 L 10 0.000391151 Z M 0.000000000000397904 0.000391151 " transform="matrix(1,-0.000000000000010825,0.000000000000010825,1,70,65.358984)"/>
<path style="fill:none;stroke-width:1;stroke-linecap:butt;stroke-linejoin:miter;stroke:rgb(0%,100%,0%);stroke-opacity:1;stroke-miterlimit:10;" d="M 0.000338747 0.000195576 L 40 0.000000000000042633 Z M 0.000338747 0.000195576 " transform="matrix(0.5,0.866025,-0.866025,0.5,80,65.358984)"/>
<path style="fill:none;stroke-width:1;stroke-linecap:butt;stroke-linejoin:miter;stroke:rgb(0%,100%,0%);stroke-opacity:1;stroke-miterlimit:10;" d="M 0.000000000000135003 -0.000000000000113687 L 9.999915 0.0000488939 Z M 0.000000000000135003 -0.000000000000113687 " transform="matrix(-0.5,0.866025,-0.866025,-0.5,100,100)"/>
<path style="fill:none;stroke-width:1;stroke-linecap:butt;stroke-linejoin:miter;stroke:rgb(0%,100%,0%);stroke-opacity:1;stroke-miterlimit:10;" d="M 0.000000000000056843 0.0000977878 L 10 0.0000977878 Z M 0.000000000000056843 0.0000977878 " transform="matrix(-1,0.000000000000011269,-0.000000000000011269,-1,95,108.660254)"/>
<path style="fill:none;stroke-width:1;stroke-linecap:butt;stroke-linejoin:miter;stroke:rgb(0%,100%,0%);stroke-opacity:1;stroke-miterlimit:10;" d="M 0.0000846868 0.0000488939 L 10 0.000000000000049738 Z M 0.0000846868 0.0000488939 " transform="matrix(-0.5,-0.866025,0.866025,-0.5,85,108.660254)"/>
<path style="fill:none;stroke-width:1;stroke-linecap:butt;stroke-linejoin:miter;stroke:rgb(0%,100%,0%);stroke-opacity:1;stroke-miterlimit:10;" d="M 0.000000000000049738 0 L 9.999915 0.0000488939 Z M 0.000000000000049738 0 " transform="matrix(0.5,-0.866025,0.866025,0.5,80,100)"/>
<path style="fill:none;stroke-width:1;stroke-linecap:butt;stroke-linejoin:miter;stroke:rgb(0%,100%,0%);stroke-opacity:1;stroke-miterlimit:10;" d="M 0.000000000000142109 0.0000977878 L 10 0.0000977878 Z M 0.000000000000142109 0.0000977878 " transform="matrix(1,-0.000000000000011657,0.000000000000011657,1,85,91.339746)"/>
<path style="fill:none;stroke-width:1;stroke-linecap:butt;stroke-linejoin:miter;stroke:rgb(0%,100%,0%);stroke-opacity:1;stroke-miterlimit:10;" d="M 0.0000846868 0.0000488939 L 10 0.000000000000063949 Z M 0.0000846868 0.0000488939 " transform="matrix(0.5,0.866025,-0.866025,0.5,95,91.339746)"/>
<path style="fill:none;stroke-width:1;stroke-linecap:butt;stroke-linejoin:miter;stroke:rgb(0%,100%,0%);stroke-opacity:1;stroke-miterlimit:10;" d="M -0.000000000000198952 -0.000000000000056843 L 39.999661 -0.000195576 Z M -0.000000000000198952 -0.000000000000056843 " transform="matrix(-0.5,-0.866025,0.866025,-0.5,100,100)"/>
<path style="fill:none;stroke-width:1;stroke-linecap:butt;stroke-linejoin:miter;stroke:rgb(0%,100%,0%);stroke-opacity:1;stroke-miterlimit:10;" d="M -0.000338747 0.000195576 L 9.999577 0.00024447 Z M -0.000338747 0.000195576 " transform="matrix(0.5,-0.866025,0.866025,0.5,80,65.358984)"/>
<path style="fill:none;stroke-width:1;stroke-linecap:butt;stroke-linejoin:miter;stroke:rgb(0%,100%,0%);stroke-opacity:1;stroke-miterlimit:10;" d="M 0.000000000000582645 0.000488939 L 10 0.000488939 Z M 0.000000000000582645 0.000488939 " transform="matrix(1,-0.00000000000001249,0.00000000000001249,1,85,56.69873)"/>
<path style="fill:none;stroke-width:1;stroke-linecap:butt;stroke-linejoin:miter;stroke:rgb(0%,100%,0%);stroke-opacity:1;stroke-miterlimit:10;" d="M 0.000423434 0.00024447 L 10.000339 0.000195576 Z M 0.000423434 0.00024447 " transform="matrix(0.5,0.866025,-0.866025,0.5,95,56.69873)"/>
<path style="fill:none;stroke-width:1;stroke-linecap:butt;stroke-linejoin:miter;stroke:rgb(0%,100%,0%);stroke-opacity:1;stroke-miterlimit:10;" d="M 0.000338747 -0.000195576 L 10.000254 -0.000146682 Z M 0.000338747 -0.000195576 " transform="matrix(-0.5,0.866025,-0.866025,-0.5,100,65.358984)"/>
<path style="fill:none;stroke-width:1;stroke-linecap:butt;stroke-linejoin:miter;stroke:rgb(0%,100%,0%);stroke-opacity:1;stroke-miterlimit:10;" d="M -0.000000000000355271 -0.000293364 L 10 -0.000293364 Z M -0.000000000000355271 -0.000293364 " transform="matrix(-1,0.000000000000012879,-0.000000000000012879,-1,95,74.019238)"/>
<path style="fill:none;stroke-width:1;stroke-linecap:butt;stroke-linejoin:miter;stroke:rgb(0%,100%,0%);stroke-opacity:1;stroke-miterlimit:10;" d="M -0.00025406 -0.000146682 L 9.999661 -0.000195576 Z M -0.00025406 -0.000146682 " transform="matrix(-0.5,-0.866025,0.866025,-0.5,85,74.019238)"/>
<path style="fill:none;stroke-width:1;stroke-linecap:butt;stroke-linejoin:miter;stroke:rgb(0%,100%,0%);stroke-opacity:1;stroke-miterlimit:10;" d="M -0.000338747 0.000195576 L 39.999323 0.000391151 Z M -0.000338747 0.000195576 " transform="matrix(0.5,-0.866025,0.866025,0.5,80,65.358984)"/>
<path style="fill:none;stroke-width:1;stroke-linecap:butt;stroke-linejoin:miter;stroke:rgb(0%,100%,0%);stroke-opacity:1;stroke-miterlimit:10;" d="M 0.000000000000937916 0.000782303 L 10 0.000782303 Z M 0.000000000000937916 0.000782303 " transform="matrix(1,-0.000000000000013156,0.000000000000013156,1,100,30.717968)"/>
<path style="fill:none;stroke-width:1;stroke-linecap:butt;stroke-linejoin:miter;stroke:rgb(0%,100%,0%);stroke-opacity:1;stroke-miterlimit:10;" d="M 0.000677494 0.000391151 L 10.000593 0.000342257 Z M 0.000677494 0.000391151 " transform="matrix(0.5,0.866025,-0.866025,0.5,110,30.717968)"/>
<path style="fill:none;stroke-width:1;stroke-linecap:butt;stroke-linejoin:miter;stroke:rgb(0%,100%,0%);stroke-opacity:1;stroke-miterlimit:10;" d="M 0.000592807 -0.000342257 L 10.000508 -0.000293364 Z M 0.000592807 -0.000342257 " transform="matrix(-0.5,0.866025,-0.866025,-0.5,115,39.378222)"/>
<path style="fill:none;stroke-width:1;stroke-linecap:butt;stroke-linejoin:miter;stroke:rgb(0%,100%,0%);stroke-opacity:1;stroke-miterlimit:10;" d="M -0.000000000000710543 -0.000586727 L 10 -0.000586727 Z M -0.000000000000710543 -0.000586727 " transform="matrix(-1,0.0000000000000136,-0.0000000000000136,-1,110,48.038476)"/>
<path style="fill:none;stroke-width:1;stroke-linecap:butt;stroke-linejoin:miter;stroke:rgb(0%,100%,0%);stroke-opacity:1;stroke-miterlimit:10;" d="M -0.000508121 -0.000293364 L 9.999407 -0.000342257 Z M -0.000508121 -0.000293364 " transform="matrix(-0.5,-0.866025,0.866025,-0.5,100,48.038476)"/>
<path style="fill:none;stroke-width:1;stroke-linecap:butt;stroke-linejoin:miter;stroke:rgb(0%,100%,0%);stroke-opacity:1;stroke-miterlimit:10;" d="M -0.000592807 0.000342257 L 9.999323 0.000391151 Z M -0.000592807 0.000342257 " transform="matrix(0.5,-0.866025,0.866025,0.5,95,39.378222)"/>
<path style="fill:none;stroke-width:1;stroke-linecap:butt;stroke-linejoin:miter;stroke:rgb(0%,100%,0%);stroke-opacity:1;stroke-miterlimit:10;" d="M 0.000000000000952127 0.000782303 L 40 0.000782303 Z M 0.000000000000952127 0.000782303 " transform="matrix(1,-0.000000000000013933,0.000000000000013933,1,100,30.717968)"/>
<path style="fill:none;stroke-width:1;stroke-linecap:butt;stroke-linejoin:miter;stroke:rgb(0%,100%,0%);stroke-opacity:1;stroke-miterlimit:10;" d="M 0.000677494 0.000391151 L 10.000593 0.000342257 Z M 0.000677494 0.000391151 " transform="matrix(0.5,0.866025,-0.866025,0.5,140,30.717968)"/>
<path style="fill:none;stroke-width:1;stroke-linecap:butt;stroke-linejoin:miter;stroke:rgb(0%,100%,0%);stroke-opacity:1;stroke-miterlimit:10;" d="M 0.000592807 -0.000342257 L 10.000508 -0.000293364 Z M 0.000592807 -0.000342257 " transform="matrix(-0.5,0.866025,-0.866025,-0.5,145,39.378222)"/>
<path style="fill:none;stroke-width:1;stroke-linecap:butt;stroke-linejoin:miter;stroke:rgb(0%,100%,0%);stroke-opacity:1;stroke-miterlimit:10;" d="M -0.000000000000710543 -0.000586727 L 10 -0.000586727 Z M -0.000000000000710543 -0.000586727 " transform="matrix(-1,0.000000000000014377,-0.000000000000014377,-1,140,48.038476)"/>
<path style="fill:none;stroke-width:1;stroke-linecap:butt;stroke-linejoin:miter;stroke:rgb(0%,100%,0%);stroke-opacity:1;stroke-miterlimit:10;" d="M -0.000508121 -0.000293364 L 9.999407 -0.000342257 Z M -0.000508121 -0.000293364 " transform="matrix(-0.5,-0.866025,0.866025,-0.5,130,48.038476)"/>
<path style="fill:none;stroke-width:1;stroke-linecap:butt;stroke-linejoin:miter;stroke:rgb(0%,100%,0%);stroke-opacity:1;stroke-miterlimit:10;" d="M -0.000592807 0.000342257 L 9.999323 0.000391151 Z M -0.000592807 0.000342257 " transform="matrix(0.5,-0.866025,0.866025,0.5,125,39.378222)"/>
<path style="fill:none;stroke-width:1;stroke-linecap:butt;stroke-linejoin:miter;stroke:rgb(0%,100%,0%);stroke-opacity:1;stroke-miterlimit:10;" d="M 0.000000000000966338 0.000782303 L 10 0.000782303 Z M 0.000000000000966338 0.000782303 " transform="matrix(1,-0.000000000000014821,0.000000000000014821,1,130,30.717968)"/>
<path style="fill:none;stroke-width:1;stroke-linecap:butt;stroke-linejoin:miter;stroke:rgb(0%,100%,0%);stroke-opacity:1;stroke-miterlimit:10;" d="M 0.000677494 0.000391151 L 40.000339 0.000195576 Z M 0.000677494 0.000391151 " transform="matrix(0.5,0.866025,-0.866025,0.5,140,30.717968)"/>
<path style="fill:none;stroke-width:1;stroke-linecap:butt;stroke-linejoin:miter;stroke:rgb(0%,100%,0%);stroke-opacity:1;stroke-miterlimit:10;" d="M 0.000338747 -0.000195576 L 10.000254 -0.000146682 Z M 0.000338747 -0.000195576 " transform="matrix(-0.5,0.866025,-0.866025,-0.5,160,65.358984)"/>
<path style="fill:none;stroke-width:1;stroke-linecap:butt;stroke-linejoin:miter;stroke:rgb(0%,100%,0%);stroke-opacity:1;stroke-miterlimit:10;" d="M -0.000000000000312639 -0.000293364 L 10 -0.000293364 Z M -0.000000000000312639 -0.000293364 " transform="matrix(-1,0.00000000000001521,-0.00000000000001521,-1,155,74.019238)"/>
<path style="fill:none;stroke-width:1;stroke-linecap:butt;stroke-linejoin:miter;stroke:rgb(0%,100%,0%);stroke-opacity:1;stroke-miterlimit:10;" d="M -0.00025406 -0.000146682 L 9.999661 -0.000195576 Z M -0.00025406 -0.000146682 " transform="matrix(-0.5,-0.866025,0.866025,-0.5,145,74.019238)"/>
<path style="fill:none;stroke-width:1;stroke-linecap:butt;stroke-linejoin:miter;stroke:rgb(0%,100%,0%);stroke-opacity:1;stroke-miterlimit:10;" d="M -0.000338747 0.000195576 L 9.999577 0.00024447 Z M -0.000338747 0.000195576 " transform="matrix(0.5,-0.866025,0.866025,0.5,140,65.358984)"/>
<path style="fill:none;stroke-width:1;stroke-linecap:butt;stroke-linejoin:miter;stroke:rgb(0%,100%,0%);stroke-opacity:1;stroke-miterlimit:10;" d="M 0.000000000000568434 0.000488939 L 10 0.000488939 Z M 0.000000000000568434 0.000488939 " transform="matrix(1,-0.000000000000015654,0.000000000000015654,1,145,56.69873)"/>
<path style="fill:none;stroke-width:1;stroke-linecap:butt;stroke-linejoin:miter;stroke:rgb(0%,100%,0%);stroke-opacity:1;stroke-miterlimit:10;" d="M 0.000423434 0.00024447 L 10.000339 0.000195576 Z M 0.000423434 0.00024447 " transform="matrix(0.5,0.866025,-0.866025,0.5,155,56.69873)"/>
<path style="fill:none;stroke-width:1;stroke-linecap:butt;stroke-linejoin:miter;stroke:rgb(0%,100%,0%);stroke-opacity:1;stroke-miterlimit:10;" d="M 0.000338747 -0.000195576 L 40 -0.000000000000312639 Z M 0.000338747 -0.000195576 " transform="matrix(-0.5,0.866025,-0.866025,-0.5,160,65.358984)"/>
<path style="fill:none;stroke-width:1;stroke-linecap:butt;stroke-linejoin:miter;stroke:rgb(0%,100%,0%);stroke-opacity:1;stroke-miterlimit:10;" d="M 0.000000000000113687 -0.00000000000082423 L 10 -0.00000000000066791 Z M 0.000000000000113687 -0.00000000000082423 " transform="matrix(-1,0.000000000000016043,-0.000000000000016043,-1,140,100)"/>
<path style="fill:none;stroke-width:1;stroke-linecap:butt;stroke-linejoin:miter;stroke:rgb(0%,100%,0%);stroke-opacity:1;stroke-miterlimit:10;" d="M -0.000000000000511591 -0.000000000000433431 L 9.999915 -0.0000488939 Z M -0.000000000000511591 -0.000000000000433431 " transform="matrix(-0.5,-0.866025,0.866025,-0.5,130,100)"/>
<path style="fill:none;stroke-width:1;stroke-linecap:butt;stroke-linejoin:miter;stroke:rgb(0%,100%,0%);stroke-opacity:1;stroke-miterlimit:10;" d="M -0.0000846868 0.0000488939 L 9.999831 0.0000977878 Z M -0.0000846868 0.0000488939 " transform="matrix(0.5,-0.866025,0.866025,0.5,125,91.339746)"/>
<path style="fill:none;stroke-width:1;stroke-linecap:butt;stroke-linejoin:miter;stroke:rgb(0%,100%,0%);stroke-opacity:1;stroke-miterlimit:10;" d="M 0.000000000000142109 0.000195576 L 10 0.000195576 Z M 0.000000000000142109 0.000195576 " transform="matrix(1,-0.000000000000016431,0.000000000000016431,1,130,82.679492)"/>
<path style="fill:none;stroke-width:1;stroke-linecap:butt;stroke-linejoin:miter;stroke:rgb(0%,100%,0%);stroke-opacity:1;stroke-miterlimit:10;" d="M 0.000169374 0.0000977878 L 10.000085 0.0000488939 Z M 0.000169374 0.0000977878 " transform="matrix(0.5,0.866025,-0.866025,0.5,140,82.679492)"/>
<path style="fill:none;stroke-width:1;stroke-linecap:butt;stroke-linejoin:miter;stroke:rgb(0%,100%,0%);stroke-opacity:1;stroke-miterlimit:10;" d="M 0.0000846868 -0.0000488939 L 10 -0.000000000000312639 Z M 0.0000846868 -0.0000488939 " transform="matrix(-0.5,0.866025,-0.866025,-0.5,145,91.339746)"/>
<path style="fill:none;stroke-width:1;stroke-linecap:butt;stroke-linejoin:miter;stroke:rgb(0%,100%,0%);stroke-opacity:1;stroke-miterlimit:10;" d="M 0.000000000000142109 -0.00000000000083844 L 40 -0.00000000000017053 Z M 0.000000000000142109 -0.00000000000083844 " transform="matrix(-1,0.000000000000016875,-0.000000000000016875,-1,140,100)"/>
<path style="fill:none;stroke-width:1;stroke-linecap:butt;stroke-linejoin:miter;stroke:rgb(0%,100%,0%);stroke-opacity:1;stroke-miterlimit:10;" d="M -0.000000000000056843 -0.000000000000227374 L 9.999915 -0.0000488939 Z M -0.000000000000056843 -0.000000000000227374 " transform="matrix(-0.5,-0.866025,0.866025,-0.5,100,100)"/>
<path style="fill:none;stroke-width:1;stroke-linecap:butt;stroke-linejoin:miter;stroke:rgb(0%,100%,0%);stroke-opacity:1;stroke-miterlimit:10;" d="M -0.0000846868 0.0000488939 L 9.999831 0.0000977878 Z M -0.0000846868 0.0000488939 " transform="matrix(0.5,-0.866025,0.866025,0.5,95,91.339746)"/>
<path style="fill:none;stroke-width:1;stroke-linecap:butt;stroke-linejoin:miter;stroke:rgb(0%,100%,0%);stroke-opacity:1;stroke-miterlimit:10;" d="M 0.000000000000127898 0.000195576 L 10 0.000195576 Z M 0.000000000000127898 0.000195576 " transform="matrix(1,-0.000000000000017319,0.000000000000017319,1,100,82.679492)"/>
<path style="fill:none;stroke-width:1;stroke-linecap:butt;stroke-linejoin:miter;stroke:rgb(0%,100%,0%);stroke-opacity:1;stroke-miterlimit:10;" d="M 0.000169374 0.0000977878 L 10.000085 0.0000488939 Z M 0.000169374 0.0000977878 " transform="matrix(0.5,0.866025,-0.866025,0.5,110,82.679492)"/>
<path style="fill:none;stroke-width:1;stroke-linecap:butt;stroke-linejoin:miter;stroke:rgb(0%,100%,0%);stroke-opacity:1;stroke-miterlimit:10;" d="M 0.0000846868 -0.0000488939 L 10 -0.000000000000028422 Z M 0.0000846868 -0.0000488939 " transform="matrix(-0.5,0.866025,-0.866025,-0.5,115,91.339746)"/>
<path style="fill:none;stroke-width:1;stroke-linecap:butt;stroke-linejoin:miter;stroke:rgb(0%,100%,0%);stroke-opacity:1;stroke-miterlimit:10;" d="M 0.000000000000156319 -0.000000000000341061 L 10 -0.00000000000017053 Z M 0.000000000000156319 -0.000000000000341061 " transform="matrix(-1,0.000000000000017597,-0.000000000000017597,-1,110,100)"/>
</g>
</svg>
